<svg width="9000" height="7254" viewBox="0 0 9000 7254" fill="none" xmlns="http://www.w3.org/2000/svg">
<mask id="mask0_1_226" style="mask-type:luminance" maskUnits="userSpaceOnUse" x="0" y="0" width="9000" height="7254">
<path d="M9000 0H0V7253.21H9000V0Z" fill="white"/>
</mask>
<g mask="url(#mask0_1_226)">
<path d="M2143.66 3586.82C2143.66 3096.71 2434.66 2695.95 2927.35 2695.95C3067.78 2695.95 3225.99 2718.89 3302.6 2752.12C3376.65 2823.57 3443.04 2997.16 3453.18 3106.93H3412.37C3328.11 2882.34 3174.96 2772.57 2901.82 2772.57C2531.72 2772.57 2268.8 3089.06 2268.8 3574.11C2268.8 4033.53 2529.14 4334.76 2940.14 4334.76C3167.33 4334.76 3340.9 4184.18 3412.37 4094.78C3425.16 4105 3437.88 4115.22 3443.04 4122.88C3353.71 4265.8 3169.9 4421.52 2912.04 4421.52C2472.97 4421.52 2143.66 4117.71 2143.66 3586.82Z" fill="#64513A"/>
<path d="M4574.04 4322.05C4612.34 4324.62 4673.59 4332.27 4727.19 4339.9C4831.88 4355.21 4842.02 4368 4842.02 4401.15C4778.2 4401.15 4647.98 4396.07 4515.28 4396.07C4382.58 4396.07 4252.36 4401.15 4188.57 4401.15C4188.57 4368 4198.79 4355.21 4303.4 4339.9C4357 4332.27 4418.25 4324.62 4456.54 4322.05V2792.98H4076.2C3933.28 2792.98 3905.21 2844.02 3849.04 3099.28H3810.72C3803.09 2933.34 3823.51 2798.07 3869.48 2718.97H5133.04C5178.98 2798.07 5199.43 2933.34 5191.77 3099.28H5153.48C5084.57 2785.28 5048.77 2795.5 4842.02 2792.98H4573.97V4322.05H4574.04Z" fill="#C3A976"/>
<path d="M6050.5 4401.15C5986.67 4401.15 5866.71 4396.07 5733.98 4396.07C5601.27 4396.07 5532.32 4401.15 5468.49 4401.15C5468.49 4368 5488.94 4355.21 5568.04 4339.9L5688.03 4319.48L6239.39 2711.31C6249.59 2708.74 6277.69 2706.25 6295.56 2706.25C6390.03 2706.25 6402.74 2741.98 6435.97 2831.3L6974.6 4316.96L7089.45 4339.98C7171.12 4357.85 7191.57 4368.07 7191.57 4401.23C7127.75 4401.23 7061.36 4396.17 6928.65 4396.17C6795.95 4396.17 6650.45 4401.23 6586.63 4401.23C6586.63 4368.07 6596.85 4355.28 6701.48 4339.98C6755.06 4332.35 6808.66 4327.19 6857.2 4322.13L6665.73 3793.72H5961.25L5782.6 4322.13C5831.11 4327.19 5882.14 4332.35 5935.75 4339.98C6040.43 4355.28 6050.57 4368.07 6050.57 4401.23L6050.5 4401.15ZM6303.19 2798.07L5989.19 3714.44H6635.02L6303.11 2798.07H6303.19Z" fill="#64513A"/>
<path d="M7804 5076.56H7805.56H7802.45C7795.42 5076.56 7791.52 5073.42 7791.52 5067.19C7811.81 5031.28 7833.66 4996.18 7853.95 4961.08C7992.8 4723.12 8123.87 4481.27 8205.8 4220.71C8215.17 4189.5 8228.42 4159.85 8240.12 4129.41C8251.05 4102.12 8271.33 4085.72 8304.1 4077.94C8402.4 4055.29 8493.68 4017.08 8576.36 3964.8C8720.71 3873.53 8826.8 3751.05 8909.51 3610.61C8960.2 3524.79 8997.67 3435.85 9000 3336.77C9000 3324.29 8996.11 3311.03 8994.55 3295.42C8975.82 3298.56 8962.56 3299.33 8951.64 3302.45C8804.95 3342.22 8689.5 3424.15 8592.76 3529.48C8509.27 3619.98 8436.73 3715.94 8371.97 3817.36C8364.16 3829.06 8351.68 3838.43 8336.09 3854.02C8333.73 3839.98 8332.17 3835.29 8332.17 3830.62C8337.65 3801.74 8342.32 3772.89 8348.57 3744.79C8421.11 3419.48 8435.17 3092.59 8378.2 2763.36C8371.19 2722.78 8368.05 2681.42 8364.16 2641.65C8449.21 2595.6 8507.71 2534.76 8545.17 2458.3C8627.08 2290.57 8663.74 2115.81 8643.48 1932.47C8636.45 1860.7 8620.83 1788.92 8577.16 1726.51C8541.26 1674.24 8501.48 1625.09 8418.77 1617.28C8406.3 1636.01 8388.34 1653.95 8380.56 1675.8C8365.72 1718.71 8351.68 1762.4 8348.57 1806.86C8335.29 1959.78 8326.73 2114.25 8315.8 2267.94C8314.25 2292.13 8310.33 2317.09 8307.22 2342.06C8303.32 2342.84 8298.63 2343.62 8294.74 2343.62C8250.27 2271.84 8240.9 2187.59 8205.8 2111.91C8170.67 2037.01 8142.6 1959 8108.28 1883.32C8073.95 1806.08 8038.05 1728.85 7999.05 1653.95C7959.25 1579.06 7914.01 1507.28 7872.65 1437.07C7903.08 1393.38 7931.96 1358.27 7953.03 1320.04C8059.89 1132.02 8092.66 929.958 8070.81 721.655C8049.75 529.734 7972.51 354.196 7858.62 192.701C7847.69 179.438 7830.52 170.857 7808.7 153.693C7793.86 180.219 7781.38 198.943 7773.57 218.447C7732.24 321.429 7725.99 429.092 7723.66 536.754C7718.96 765.342 7738.47 993.152 7776.71 1218.62C7778.27 1231.1 7778.27 1242.8 7778.27 1255.29L7767.34 1260.75C7753.28 1246.71 7736.91 1233.44 7725.99 1217.06C7612.1 1051.66 7490.37 889.389 7346.04 744.278C7231.37 630.374 7147.88 500.088 7068.31 365.897C6985.62 225.468 6870.15 114.685 6706.31 49.1508C6614.26 12.4828 6521.41 0.780334 6416.88 0.780334C6423.1 19.5043 6426.24 32.7671 6432.47 46.03C6455.87 99.8616 6476.94 153.693 6502.7 206.744C6554.17 312.066 6619.71 408.028 6718.01 482.923C6807.73 550.798 6906.81 604.629 7013.7 647.538C7084.7 675.625 7159.58 701.37 7211.86 755.201C7300.79 848.042 7388.95 942.442 7468.55 1042.3C7555.12 1149.97 7630.8 1263.09 7709.59 1375.43C7765.01 1455.01 7818.04 1536.15 7871.87 1617.28C7882.8 1633.67 7889.83 1652.39 7898.41 1670.34C7895.27 1673.46 7890.61 1676.58 7887.49 1679.7C7868.76 1670.34 7849.25 1662.54 7832.1 1651.61C7655.79 1534.59 7468.55 1437.07 7259.44 1378.55C7228.25 1369.97 7196.26 1364.51 7164.27 1358.27C7161.94 1362.17 7158.02 1366.07 7155.69 1369.97C7186.12 1454.23 7242.29 1525.23 7305.49 1589.98C7509.1 1799.06 7737.69 1972.26 8062.25 1987.86C8208.91 2250.78 8387.56 2990.37 8331.4 3107.4C8322.81 3096.48 8312.66 3087.11 8307.22 3076.19C8264.3 2975.55 8204.24 2882.72 8141.82 2791.43C8067.7 2681.42 7982.66 2580.79 7877.35 2493.41C7857.06 2477.03 7835.99 2462.2 7800.11 2466.11C7782.16 2557.39 7811.81 2643.99 7837.55 2729.03C7916.34 2992.73 8063.81 3215.85 8308.77 3380.46L8327.5 3420.26C8305.66 3634.79 8258.86 3843.87 8190.18 4049.07C8156.64 4147.37 8121.53 4244.89 8086.43 4342.42C8080.18 4357.23 8070.03 4370.49 8061.47 4384.52C8056.78 4382.97 8052.11 4382.19 8046.63 4380.63V4331.49C8052.11 4269.07 8061.47 4206.65 8063.03 4144.25C8066.92 3990.56 8024.79 3844.65 7949.89 3708.13C7924.93 3662.89 7898.41 3616.86 7843.02 3580.96C7829.74 3614.5 7815.7 3641.82 7808.7 3670.67C7790.75 3746.35 7773.57 3821.25 7762.65 3897.71C7747.06 4010.05 7729.1 4123.19 7750.17 4237.86C7776.71 4382.19 7807.12 4525.74 7899.97 4649.8C7921.04 4677.09 7914.01 4701.27 7899.97 4726.26C7837.55 4835.48 7779.82 4947.04 7711.18 5053.91C7634.72 5174.05 7550.45 5291.09 7466.96 5408.12C7413.94 5482.22 7356.18 5553.23 7300.01 5624.99C7293.01 5633.57 7282.09 5639.05 7272.72 5646.05C7268.8 5643.72 7264.13 5641.38 7261.02 5639.05C7265.69 5622.65 7268.8 5606.28 7275.06 5590.66C7329.67 5447.11 7359.32 5299.67 7364.77 5147.54C7365.55 5122.58 7358.52 5097.6 7354.63 5064.05C7322.64 5075.75 7293.79 5078.89 7276.61 5093.7C7237.59 5125.69 7198.6 5160.02 7172.06 5200.59C7107.33 5298.9 7069.86 5407.34 7034.76 5517.34C6996.55 5639.83 6980.93 5766.2 6980.93 5893.38C6980.93 5937.07 6971.56 5971.39 6938.8 6001.82C6756.25 6172.67 6553.4 6320.13 6331.06 6445.73C6317.02 6453.54 6301.4 6457.43 6286.59 6462.9L6274.11 6452.76C6427.02 6279.56 6501.9 6080.62 6519.07 5859.83C6468.35 5852.8 6441.06 5876.98 6414.52 5899.63C6279.56 6015.08 6175.03 6151.6 6097.79 6304.51C6059.55 6380.19 6029.12 6460.57 6026 6544.81C6024.45 6586.94 6004.16 6608.79 5962.81 6622.82C5848.91 6661.06 5736.57 6700.86 5622.65 6739.86C5607.06 6746.11 5590.66 6753.11 5574.29 6759.37C5575.07 6763.26 5577.41 6767.18 5577.41 6771.07C5607.06 6771.07 5636.71 6775.74 5664.01 6771.07C5880.9 6735.19 6081.4 6655.59 6274.11 6561.98C6380.97 6509.71 6478.49 6442.61 6579.13 6380.97C6608.79 6362.27 6638.44 6349.79 6676.66 6363.82C6804.61 6409.85 6937.24 6415.3 7072.2 6399.7C7285.98 6375.52 7466.96 6290.48 7619.88 6153.18C7633.94 6140.68 7640.95 6122.75 7655.79 6101.68C7628.47 6091.54 7610.51 6081.4 7591.03 6078.28C7559.04 6072.81 7527.83 6070.47 7495.84 6070.47C7300.01 6064.22 7109.66 6087.65 6927.87 6156.3C6914.62 6160.97 6900.58 6160.97 6886.52 6163.33C6884.18 6159.41 6882.63 6156.3 6881.07 6152.4C6895.88 6137.56 6909.17 6121.19 6924.76 6107.13C6991.07 6045.51 7058.16 5983.87 7124.48 5922.25C7303.13 5756.06 7445.12 5565.7 7580.88 5369.88C7591.03 5355.07 7605.06 5343.36 7615.99 5330.11C7633.16 5332.44 7645.64 5334 7657.34 5336.33C7796.19 5369.1 7931.18 5355.84 8060.67 5307.48C8273.67 5229.44 8410.97 5082 8498.34 4892.43C8507.71 4872.14 8507.71 4847.96 8513.96 4819.09C8518.63 4784.76 8449.21 4795.68 8421.89 4798.02C8361.05 4803.49 8296.29 4807.39 8242.46 4830.01C8139.49 4872.92 8044.3 4927.53 7947.55 4980.59C7896.86 5008.66 7851.59 5044.57 7804 5076.56Z" fill="#C3A976"/>
<path d="M6031.45 6902.14C6030.67 6900.58 6028.34 6899.8 6028.34 6898.24C6026.78 6899.02 6026 6901.36 6024.45 6901.36C6026.78 6902.91 6028.34 6903.69 6029.9 6905.25C6029.9 6904.47 6031.45 6902.14 6031.45 6902.14Z" fill="#64513A"/>
<path d="M1197.56 5074.97H1191.31C1143.72 5042.98 1098.47 5007.1 1047.76 4979.03C951.024 4925.98 854.281 4871.36 752.861 4828.45C673.282 4810.5 613.99 4800.35 573.421 4796.46C546.118 4794.13 517.25 4808.94 481.364 4817.53C487.603 4845.6 487.603 4869.81 496.967 4890.87C584.344 5079.67 721.655 5227.11 934.641 5305.9C1064.93 5353.51 1199.9 5367.54 1337.99 5334.78C1350.47 5331.66 1362.95 5330.89 1379.33 5328.52C1391.04 5341.03 1404.3 5353.51 1414.44 5368.32C1550.19 5564.15 1692.18 5754.5 1870.84 5920.67C1937.15 5982.31 2004.25 6043.96 2070.56 6105.58C2086.17 6119.61 2099.43 6136.01 2114.25 6150.82C2111.91 6154.74 2110.35 6157.85 2108.79 6161.74C2096.31 6159.41 2081.49 6159.41 2069 6154.74C1887.22 6086.06 1696.86 6062.66 1501.04 6068.92C1469.05 6069.69 1436.29 6071.25 1405.86 6076.73C1386.36 6079.84 1368.41 6089.98 1341.11 6100.13C1355.93 6121.19 1362.95 6139.12 1376.99 6151.6C1529.13 6288.92 1710.91 6373.19 1924.67 6398.15C2059.64 6414.52 2193.05 6408.29 2320.22 6362.27C2357.66 6348.2 2387.31 6360.68 2417.74 6379.41C2518.38 6441.06 2615.89 6508.93 2722.78 6560.43C2916.27 6653.25 3115.99 6733.6 3332.88 6769.51C3361.73 6773.4 3390.61 6769.51 3419.48 6769.51C3420.26 6765.59 3421.82 6761.7 3422.59 6757.81C3406.98 6750.78 3390.61 6743.75 3374.21 6738.3C3261.09 6699.28 3147.98 6659.51 3034.06 6621.27C2992.73 6607.23 2972.44 6585.38 2970.88 6543.25C2967.74 6458.99 2937.34 6378.64 2899.09 6302.96C2821.86 6150.04 2716.55 6014.3 2582.35 5898.05C2555.83 5875.43 2528.52 5851.25 2477.81 5858.28C2494.97 6079.06 2569.09 6278 2722.78 6451.2L2710.3 6461.35C2695.49 6455.09 2679.87 6451.98 2665.83 6444.17C2443.48 6318.58 2239.86 6171.89 2058.08 6000.27C2026.09 5969.84 2015.95 5935.51 2015.95 5891.82C2015.17 5765.42 2000.35 5638.27 1962.12 5515.76C1928.57 5406.56 1889.56 5297.34 1824.81 5199.04C1798.28 5159.24 1758.49 5124.92 1720.27 5092.15C1703.1 5078.11 1674.24 5074.19 1642.25 5062.49C1638.35 5096.04 1632.11 5121.02 1632.11 5145.98C1637.57 5297.34 1667.22 5445.56 1721.83 5589.11C1728.07 5604.72 1731.97 5621.1 1735.87 5637.49C1731.97 5639.83 1727.29 5642.16 1724.17 5644.5C1714.8 5637.49 1703.88 5632.02 1696.86 5623.43C1639.91 5551.67 1582.96 5480.66 1529.91 5406.56C1446.43 5290.31 1362.95 5173.27 1285.71 5052.35C1218.62 4946.26 1159.33 4834.68 1096.91 4724.68C1082.87 4699.72 1076.63 4675.54 1096.91 4648.22C1190.53 4524.18 1220.18 4381.41 1246.71 4236.3C1267.77 4121.61 1250.61 4009.27 1234.22 3896.15C1223.3 3819.69 1205.36 3744.02 1188.19 3669.11C1181.95 3640.27 1166.35 3612.95 1153.87 3579.4C1098.47 3616.06 1071.95 3661.33 1046.98 3706.58C971.307 3843.1 929.958 3988.2 933.86 4142.67C936.2 4205.09 944.782 4267.52 950.243 4329.91C951.024 4346.31 950.243 4362.68 950.243 4379.07C945.563 4379.85 940.88 4381.41 935.419 4382.97C926.837 4368.93 915.914 4355.67 910.455 4340.83C875.348 4243.34 839.459 4145.81 806.692 4047.51C739.598 3845.43 692.787 3639.49 670.942 3429.6C668.602 3417.12 668.602 3403.86 668.602 3392.16C926.058 3226.77 1078.97 2998.18 1160.11 2727.45C1185.85 2642.43 1214.72 2555.82 1197.56 2464.54C1160.11 2460.65 1139.82 2475.47 1120.32 2491.85C1016.56 2579.23 929.958 2680.65 855.843 2789.87C794.21 2881.95 734.137 2974 690.447 3074.63C685.767 3085.55 674.844 3094.14 666.262 3105.84C610.871 2989.59 789.528 2249.22 935.419 1986.3C1259.97 1971.48 1487.78 1797.5 1692.18 1588.42C1756.15 1522.88 1813.11 1452.67 1841.97 1368.41C1839.63 1364.51 1835.73 1360.61 1833.39 1356.71C1801.4 1363.73 1768.64 1368.41 1738.21 1376.99C1528.35 1435.51 1341.89 1533.03 1165.57 1650.05C1148.4 1660.97 1128.9 1668.77 1110.18 1678.14C1107.06 1675.02 1102.37 1671.9 1099.26 1668.77C1107.84 1650.83 1114.86 1632.11 1125.78 1615.72C1178.83 1534.59 1232.66 1453.45 1288.06 1373.87C1366.85 1262.31 1443.31 1148.4 1529.13 1040.74C1608.7 940.88 1696.86 846.48 1785.8 753.642C1838.07 699.029 1912.97 674.063 1983.96 645.976C2090.85 603.848 2189.93 550.017 2279.65 481.364C2377.95 406.466 2443.48 310.506 2494.97 205.184C2520.72 152.913 2541.78 98.3011 2565.19 44.4694C2571.43 31.9867 2574.55 17.9438 2580.79 0C2477.81 0 2383.41 11.7025 2291.35 48.3704C2127.51 113.904 2012.05 224.688 1929.35 365.119C1849.77 499.307 1765.52 628.814 1651.61 743.497C1508.06 888.611 1387.14 1050.88 1271.67 1216.28C1259.97 1231.88 1244.37 1245.14 1230.32 1259.97L1219.4 1254.51C1220.18 1242.02 1220.18 1229.54 1221.74 1217.84C1259.97 991.59 1280.25 764.562 1274.79 535.973C1271.67 427.53 1266.21 320.648 1224.86 217.666C1217.06 197.382 1204.58 179.438 1189.75 152.913C1167.13 170.076 1149.19 178.658 1139.82 191.921C1025.14 354.196 947.903 528.953 927.617 720.874C904.994 929.177 938.54 1131.24 1045.42 1319.26C1068.05 1357.49 1096.13 1392.6 1125.78 1436.28C1083.65 1506.5 1038.4 1578.28 999.394 1653.17C960.385 1728.07 924.496 1805.31 890.17 1882.54C855.843 1958.22 827.756 2035.45 792.649 2111.13C758.322 2186.81 748.18 2271.06 703.71 2342.84C699.81 2342.06 695.127 2341.28 691.228 2341.28C688.888 2317.09 684.205 2292.13 682.646 2267.16C671.723 2113.47 663.922 1959.78 649.878 1806.08C645.979 1761.62 632.714 1717.93 617.892 1675.02C611.65 1653.17 592.148 1634.45 579.663 1616.51C496.186 1624.31 457.179 1673.46 421.29 1725.73C378.381 1788.14 363.557 1859.92 354.975 1931.69C334.692 2115.03 371.358 2290.57 453.277 2457.52C490.724 2533.2 548.458 2594.82 634.276 2640.87C629.595 2680.65 627.255 2722 620.232 2762.58C563.28 3091.03 577.323 3418.68 649.878 3744.02C656.901 3772.89 660.801 3800.96 666.262 3829.84C667.821 3833.73 664.703 3838.43 662.36 3853.24C646.757 3838.43 634.276 3829.06 626.474 3816.58C562.501 3715.14 489.943 3619.2 407.247 3528.68C309.726 3422.59 195.042 3341.44 48.3704 3301.67C37.4479 3298.53 24.9653 3297.75 5.46118 3294.64C2.3405 3310.26 0 3322.74 0 3335.99C2.3405 3435.07 39.7886 3524.01 90.4994 3609.83C173.197 3750.27 278.52 3872.75 423.63 3964.02C507.108 4017.08 597.606 4055.29 695.908 4077.14C727.895 4084.95 748.959 4101.34 759.881 4128.64C772.365 4159.07 784.847 4188.72 794.21 4219.91C876.126 4480.49 1005.63 4722.34 1146.06 4960.3C1166.35 4996.18 1188.19 5031.28 1208.48 5066.41C1207.7 5071.86 1204.58 5075.75 1197.56 5075.75V5074.97Z" fill="#C3A976"/>
<path d="M2970.88 6902.14C2970.88 6902.91 2972.44 6905.25 2972.44 6905.25C2974.77 6903.69 2976.33 6902.91 2977.89 6901.36C2976.33 6900.58 2975.55 6898.22 2974 6898.22C2973.22 6899.8 2971.66 6900.58 2970.88 6902.14Z" fill="#64513A"/>
</g>
<mask id="mask1_1_226" style="mask-type:luminance" maskUnits="userSpaceOnUse" x="3584" y="6450" width="1831" height="805">
<path d="M5415 6450H3584V7254.37H5415V6450Z" fill="white"/>
</mask>
<g mask="url(#mask1_1_226)">
<path d="M4057.06 6488.12C4104.61 6498.84 4081.76 6483.35 4034.21 6480.95L4057.06 6488.12Z" fill="#C3A976" stroke="#C3A976" stroke-width="9" stroke-miterlimit="10"/>
<path d="M4947.31 6490.69C4899.76 6501.41 4922.61 6485.92 4970.16 6483.52L4947.31 6490.69Z" fill="#C3A976" stroke="#C3A976" stroke-width="9" stroke-miterlimit="10"/>
<path d="M4574.22 6928.26C4723.44 7091.42 4913.68 7288.2 5162.1 7185.7C5547.49 7025.81 5378.57 6470.73 4974.35 6526.49C4667.68 6569.1 4390.55 7117.65 4098.66 7200.45C4010.95 7225.87 3903.52 7211.93 3825.62 7167.65C3552.6 7013.52 3597.7 6622.41 3905.15 6537.15C4149.49 6469.09 4302.02 6658.48 4452.06 6808.53" stroke="#64513A" stroke-width="15" stroke-linecap="round" stroke-linejoin="round"/>
<path d="M4407.79 6838.06C4286.42 6713.43 4156.88 6551.08 3957.65 6579.77C3664.91 6620.77 3592.77 6987.29 3855.97 7125.86C3936.32 7168.47 4042.09 7171.77 4125.72 7136.52C4346.27 7043.02 4632.43 6585.52 4896.45 6498.59" stroke="#1A1917" stroke-width="7" stroke-linecap="round" stroke-linejoin="round"/>
<path d="M4465.18 6750.31C4358.59 6651.12 4258.55 6528.94 4106.05 6494.5" stroke="#1A1917" stroke-width="7" stroke-linecap="round" stroke-linejoin="round"/>
<path d="M5182.61 7118.47C4930.89 7247.19 4763.63 7058.62 4607.02 6889.7" stroke="#1A1917" stroke-width="7" stroke-linecap="round" stroke-linejoin="round"/>
<path d="M4868.58 7227.5C4732.47 7174.22 4637.36 7060.25 4537.32 6962.66" stroke="#1A1917" stroke-width="7" stroke-linecap="round" stroke-linejoin="round"/>
</g>
</svg>
